<mxfile host="app.diagrams.net" modified="2023-11-27T03:57:38.557Z" agent="Mozilla/5.0 (Windows NT 10.0; Win64; x64) AppleWebKit/537.36 (KHTML, like Gecko) Chrome/119.0.0.0 Safari/537.36" etag="rqBXtHSO5OnUItUfdnkO" version="22.1.4" type="github">
  <diagram name="第 1 页" id="SHI10N2IbnifPJVe8ahk">
    <mxGraphModel dx="1436" dy="741" grid="1" gridSize="10" guides="1" tooltips="1" connect="1" arrows="1" fold="1" page="1" pageScale="1" pageWidth="827" pageHeight="1169" math="0" shadow="0">
      <root>
        <mxCell id="0" />
        <mxCell id="1" parent="0" />
        <mxCell id="7rVctip8Hl9_rT7Khhuv-88" value="" style="rounded=0;whiteSpace=wrap;html=1;" vertex="1" parent="1">
          <mxGeometry x="360" y="410" width="340" height="300" as="geometry" />
        </mxCell>
        <mxCell id="7rVctip8Hl9_rT7Khhuv-85" value="" style="rounded=0;whiteSpace=wrap;html=1;" vertex="1" parent="1">
          <mxGeometry x="360" y="30" width="450" height="360" as="geometry" />
        </mxCell>
        <mxCell id="7rVctip8Hl9_rT7Khhuv-6" style="rounded=0;orthogonalLoop=1;jettySize=auto;html=1;exitX=0.5;exitY=1;exitDx=0;exitDy=0;" edge="1" parent="1" source="7rVctip8Hl9_rT7Khhuv-1" target="7rVctip8Hl9_rT7Khhuv-2">
          <mxGeometry relative="1" as="geometry" />
        </mxCell>
        <mxCell id="7rVctip8Hl9_rT7Khhuv-37" value="R1" style="edgeLabel;html=1;align=center;verticalAlign=middle;resizable=0;points=[];" vertex="1" connectable="0" parent="7rVctip8Hl9_rT7Khhuv-6">
          <mxGeometry x="-0.2094" y="1" relative="1" as="geometry">
            <mxPoint x="-1" as="offset" />
          </mxGeometry>
        </mxCell>
        <mxCell id="7rVctip8Hl9_rT7Khhuv-7" style="rounded=0;orthogonalLoop=1;jettySize=auto;html=1;entryX=0.5;entryY=0;entryDx=0;entryDy=0;exitX=0.5;exitY=1;exitDx=0;exitDy=0;" edge="1" parent="1" source="7rVctip8Hl9_rT7Khhuv-1" target="7rVctip8Hl9_rT7Khhuv-3">
          <mxGeometry relative="1" as="geometry">
            <mxPoint x="185" y="100" as="sourcePoint" />
          </mxGeometry>
        </mxCell>
        <mxCell id="7rVctip8Hl9_rT7Khhuv-40" value="R2" style="edgeLabel;html=1;align=center;verticalAlign=middle;resizable=0;points=[];" vertex="1" connectable="0" parent="7rVctip8Hl9_rT7Khhuv-7">
          <mxGeometry x="-0.1492" y="1" relative="1" as="geometry">
            <mxPoint as="offset" />
          </mxGeometry>
        </mxCell>
        <mxCell id="7rVctip8Hl9_rT7Khhuv-1" value="&lt;font style=&quot;font-size: 14px;&quot;&gt;A&lt;/font&gt;" style="ellipse;whiteSpace=wrap;html=1;aspect=fixed;" vertex="1" parent="1">
          <mxGeometry x="150" y="80" width="50" height="50" as="geometry" />
        </mxCell>
        <mxCell id="7rVctip8Hl9_rT7Khhuv-9" style="rounded=0;orthogonalLoop=1;jettySize=auto;html=1;entryX=0.5;entryY=0;entryDx=0;entryDy=0;" edge="1" parent="1" source="7rVctip8Hl9_rT7Khhuv-2" target="7rVctip8Hl9_rT7Khhuv-4">
          <mxGeometry relative="1" as="geometry" />
        </mxCell>
        <mxCell id="7rVctip8Hl9_rT7Khhuv-43" value="R5" style="edgeLabel;html=1;align=center;verticalAlign=middle;resizable=0;points=[];" vertex="1" connectable="0" parent="7rVctip8Hl9_rT7Khhuv-9">
          <mxGeometry x="-0.0804" relative="1" as="geometry">
            <mxPoint as="offset" />
          </mxGeometry>
        </mxCell>
        <mxCell id="7rVctip8Hl9_rT7Khhuv-2" value="&lt;font style=&quot;font-size: 14px;&quot;&gt;B&lt;/font&gt;" style="ellipse;whiteSpace=wrap;html=1;aspect=fixed;" vertex="1" parent="1">
          <mxGeometry x="70" y="180" width="50" height="50" as="geometry" />
        </mxCell>
        <mxCell id="7rVctip8Hl9_rT7Khhuv-11" value="" style="rounded=0;orthogonalLoop=1;jettySize=auto;html=1;" edge="1" parent="1" source="7rVctip8Hl9_rT7Khhuv-3" target="7rVctip8Hl9_rT7Khhuv-5">
          <mxGeometry relative="1" as="geometry" />
        </mxCell>
        <mxCell id="7rVctip8Hl9_rT7Khhuv-41" value="R3" style="edgeLabel;html=1;align=center;verticalAlign=middle;resizable=0;points=[];" vertex="1" connectable="0" parent="7rVctip8Hl9_rT7Khhuv-11">
          <mxGeometry x="-0.1" y="-1" relative="1" as="geometry">
            <mxPoint as="offset" />
          </mxGeometry>
        </mxCell>
        <mxCell id="7rVctip8Hl9_rT7Khhuv-3" value="&lt;font style=&quot;font-size: 14px;&quot;&gt;C&lt;/font&gt;" style="ellipse;whiteSpace=wrap;html=1;aspect=fixed;" vertex="1" parent="1">
          <mxGeometry x="220" y="180" width="50" height="50" as="geometry" />
        </mxCell>
        <mxCell id="7rVctip8Hl9_rT7Khhuv-71" style="edgeStyle=orthogonalEdgeStyle;rounded=0;orthogonalLoop=1;jettySize=auto;html=1;exitX=0.5;exitY=1;exitDx=0;exitDy=0;entryX=0.5;entryY=0;entryDx=0;entryDy=0;" edge="1" parent="1" source="7rVctip8Hl9_rT7Khhuv-4" target="7rVctip8Hl9_rT7Khhuv-72">
          <mxGeometry relative="1" as="geometry">
            <mxPoint x="155.33333333333348" y="450" as="targetPoint" />
          </mxGeometry>
        </mxCell>
        <mxCell id="7rVctip8Hl9_rT7Khhuv-80" value="R6" style="edgeLabel;html=1;align=center;verticalAlign=middle;resizable=0;points=[];" vertex="1" connectable="0" parent="7rVctip8Hl9_rT7Khhuv-71">
          <mxGeometry x="-0.2083" y="-1" relative="1" as="geometry">
            <mxPoint as="offset" />
          </mxGeometry>
        </mxCell>
        <mxCell id="7rVctip8Hl9_rT7Khhuv-4" value="&lt;font style=&quot;font-size: 14px;&quot;&gt;E&lt;/font&gt;" style="ellipse;whiteSpace=wrap;html=1;aspect=fixed;" vertex="1" parent="1">
          <mxGeometry x="130" y="350" width="50" height="50" as="geometry" />
        </mxCell>
        <mxCell id="7rVctip8Hl9_rT7Khhuv-10" style="rounded=0;orthogonalLoop=1;jettySize=auto;html=1;entryX=0.5;entryY=0;entryDx=0;entryDy=0;" edge="1" parent="1" source="7rVctip8Hl9_rT7Khhuv-5" target="7rVctip8Hl9_rT7Khhuv-4">
          <mxGeometry relative="1" as="geometry" />
        </mxCell>
        <mxCell id="7rVctip8Hl9_rT7Khhuv-42" value="R4" style="edgeLabel;html=1;align=center;verticalAlign=middle;resizable=0;points=[];" vertex="1" connectable="0" parent="7rVctip8Hl9_rT7Khhuv-10">
          <mxGeometry x="-0.2339" y="1" relative="1" as="geometry">
            <mxPoint as="offset" />
          </mxGeometry>
        </mxCell>
        <mxCell id="7rVctip8Hl9_rT7Khhuv-5" value="&lt;font style=&quot;font-size: 14px;&quot;&gt;D&lt;/font&gt;" style="ellipse;whiteSpace=wrap;html=1;aspect=fixed;" vertex="1" parent="1">
          <mxGeometry x="220" y="270" width="50" height="50" as="geometry" />
        </mxCell>
        <mxCell id="7rVctip8Hl9_rT7Khhuv-12" value="A" style="rounded=0;whiteSpace=wrap;html=1;" vertex="1" parent="1">
          <mxGeometry x="440" y="80" width="40" height="25" as="geometry" />
        </mxCell>
        <mxCell id="7rVctip8Hl9_rT7Khhuv-14" value="Job" style="rounded=0;whiteSpace=wrap;html=1;" vertex="1" parent="1">
          <mxGeometry x="480" y="80" width="40" height="25" as="geometry" />
        </mxCell>
        <mxCell id="7rVctip8Hl9_rT7Khhuv-29" style="edgeStyle=orthogonalEdgeStyle;rounded=0;orthogonalLoop=1;jettySize=auto;html=1;exitX=0.5;exitY=1;exitDx=0;exitDy=0;entryX=0.5;entryY=0;entryDx=0;entryDy=0;" edge="1" parent="1" source="7rVctip8Hl9_rT7Khhuv-15" target="7rVctip8Hl9_rT7Khhuv-17">
          <mxGeometry relative="1" as="geometry" />
        </mxCell>
        <mxCell id="7rVctip8Hl9_rT7Khhuv-30" style="edgeStyle=orthogonalEdgeStyle;rounded=0;orthogonalLoop=1;jettySize=auto;html=1;exitX=0.5;exitY=1;exitDx=0;exitDy=0;entryX=0.5;entryY=0;entryDx=0;entryDy=0;" edge="1" parent="1" source="7rVctip8Hl9_rT7Khhuv-31" target="7rVctip8Hl9_rT7Khhuv-22">
          <mxGeometry relative="1" as="geometry" />
        </mxCell>
        <mxCell id="7rVctip8Hl9_rT7Khhuv-15" value="Next" style="rounded=0;whiteSpace=wrap;html=1;" vertex="1" parent="1">
          <mxGeometry x="520" y="80" width="40" height="25" as="geometry" />
        </mxCell>
        <mxCell id="7rVctip8Hl9_rT7Khhuv-17" value="B" style="rounded=0;whiteSpace=wrap;html=1;" vertex="1" parent="1">
          <mxGeometry x="440" y="155" width="40" height="25" as="geometry" />
        </mxCell>
        <mxCell id="7rVctip8Hl9_rT7Khhuv-18" value="Job" style="rounded=0;whiteSpace=wrap;html=1;" vertex="1" parent="1">
          <mxGeometry x="480" y="155" width="40" height="25" as="geometry" />
        </mxCell>
        <mxCell id="7rVctip8Hl9_rT7Khhuv-32" style="edgeStyle=orthogonalEdgeStyle;rounded=0;orthogonalLoop=1;jettySize=auto;html=1;exitX=0.5;exitY=1;exitDx=0;exitDy=0;entryX=0.5;entryY=0;entryDx=0;entryDy=0;" edge="1" parent="1" source="7rVctip8Hl9_rT7Khhuv-19" target="7rVctip8Hl9_rT7Khhuv-26">
          <mxGeometry relative="1" as="geometry" />
        </mxCell>
        <mxCell id="7rVctip8Hl9_rT7Khhuv-19" value="Next" style="rounded=0;whiteSpace=wrap;html=1;" vertex="1" parent="1">
          <mxGeometry x="520" y="155" width="40" height="25" as="geometry" />
        </mxCell>
        <mxCell id="7rVctip8Hl9_rT7Khhuv-20" value="C" style="rounded=0;whiteSpace=wrap;html=1;" vertex="1" parent="1">
          <mxGeometry x="600" y="155" width="40" height="25" as="geometry" />
        </mxCell>
        <mxCell id="7rVctip8Hl9_rT7Khhuv-21" value="Job" style="rounded=0;whiteSpace=wrap;html=1;" vertex="1" parent="1">
          <mxGeometry x="640" y="155" width="40" height="25" as="geometry" />
        </mxCell>
        <mxCell id="7rVctip8Hl9_rT7Khhuv-35" style="edgeStyle=orthogonalEdgeStyle;rounded=0;orthogonalLoop=1;jettySize=auto;html=1;exitX=0.5;exitY=1;exitDx=0;exitDy=0;entryX=0.5;entryY=0;entryDx=0;entryDy=0;" edge="1" parent="1" source="7rVctip8Hl9_rT7Khhuv-22" target="7rVctip8Hl9_rT7Khhuv-23">
          <mxGeometry relative="1" as="geometry" />
        </mxCell>
        <mxCell id="7rVctip8Hl9_rT7Khhuv-22" value="Next" style="rounded=0;whiteSpace=wrap;html=1;" vertex="1" parent="1">
          <mxGeometry x="680" y="155" width="40" height="25" as="geometry" />
        </mxCell>
        <mxCell id="7rVctip8Hl9_rT7Khhuv-23" value="D" style="rounded=0;whiteSpace=wrap;html=1;" vertex="1" parent="1">
          <mxGeometry x="600" y="235" width="40" height="25" as="geometry" />
        </mxCell>
        <mxCell id="7rVctip8Hl9_rT7Khhuv-24" value="Job" style="rounded=0;whiteSpace=wrap;html=1;" vertex="1" parent="1">
          <mxGeometry x="640" y="235" width="40" height="25" as="geometry" />
        </mxCell>
        <mxCell id="7rVctip8Hl9_rT7Khhuv-36" style="edgeStyle=orthogonalEdgeStyle;rounded=0;orthogonalLoop=1;jettySize=auto;html=1;exitX=0.5;exitY=1;exitDx=0;exitDy=0;entryX=0.5;entryY=0;entryDx=0;entryDy=0;" edge="1" parent="1" source="7rVctip8Hl9_rT7Khhuv-25" target="7rVctip8Hl9_rT7Khhuv-26">
          <mxGeometry relative="1" as="geometry">
            <Array as="points">
              <mxPoint x="700" y="275" />
              <mxPoint x="520" y="275" />
            </Array>
          </mxGeometry>
        </mxCell>
        <mxCell id="7rVctip8Hl9_rT7Khhuv-25" value="Next" style="rounded=0;whiteSpace=wrap;html=1;" vertex="1" parent="1">
          <mxGeometry x="680" y="235" width="40" height="25" as="geometry" />
        </mxCell>
        <mxCell id="7rVctip8Hl9_rT7Khhuv-26" value="E" style="rounded=0;whiteSpace=wrap;html=1;" vertex="1" parent="1">
          <mxGeometry x="500" y="295" width="40" height="25" as="geometry" />
        </mxCell>
        <mxCell id="7rVctip8Hl9_rT7Khhuv-27" value="Job" style="rounded=0;whiteSpace=wrap;html=1;" vertex="1" parent="1">
          <mxGeometry x="540" y="295" width="40" height="25" as="geometry" />
        </mxCell>
        <mxCell id="7rVctip8Hl9_rT7Khhuv-34" style="edgeStyle=orthogonalEdgeStyle;rounded=0;orthogonalLoop=1;jettySize=auto;html=1;exitX=0.5;exitY=1;exitDx=0;exitDy=0;entryX=0.5;entryY=1;entryDx=0;entryDy=0;" edge="1" parent="1" source="7rVctip8Hl9_rT7Khhuv-28" target="7rVctip8Hl9_rT7Khhuv-75">
          <mxGeometry relative="1" as="geometry">
            <mxPoint x="600" y="350" as="targetPoint" />
          </mxGeometry>
        </mxCell>
        <mxCell id="7rVctip8Hl9_rT7Khhuv-28" value="Next" style="rounded=0;whiteSpace=wrap;html=1;" vertex="1" parent="1">
          <mxGeometry x="580" y="295" width="40" height="25" as="geometry" />
        </mxCell>
        <mxCell id="7rVctip8Hl9_rT7Khhuv-31" value="Next" style="rounded=0;whiteSpace=wrap;html=1;" vertex="1" parent="1">
          <mxGeometry x="560" y="80" width="40" height="25" as="geometry" />
        </mxCell>
        <mxCell id="7rVctip8Hl9_rT7Khhuv-44" value="A" style="rounded=0;whiteSpace=wrap;html=1;" vertex="1" parent="1">
          <mxGeometry x="380" y="472" width="40" height="25" as="geometry" />
        </mxCell>
        <mxCell id="7rVctip8Hl9_rT7Khhuv-45" value="Job" style="rounded=0;whiteSpace=wrap;html=1;" vertex="1" parent="1">
          <mxGeometry x="420" y="472" width="40" height="25" as="geometry" />
        </mxCell>
        <mxCell id="7rVctip8Hl9_rT7Khhuv-46" value="B" style="rounded=0;whiteSpace=wrap;html=1;" vertex="1" parent="1">
          <mxGeometry x="380" y="512" width="40" height="25" as="geometry" />
        </mxCell>
        <mxCell id="7rVctip8Hl9_rT7Khhuv-47" value="Job" style="rounded=0;whiteSpace=wrap;html=1;" vertex="1" parent="1">
          <mxGeometry x="420" y="512" width="40" height="25" as="geometry" />
        </mxCell>
        <mxCell id="7rVctip8Hl9_rT7Khhuv-48" value="C" style="rounded=0;whiteSpace=wrap;html=1;" vertex="1" parent="1">
          <mxGeometry x="380" y="552" width="40" height="25" as="geometry" />
        </mxCell>
        <mxCell id="7rVctip8Hl9_rT7Khhuv-49" value="Job" style="rounded=0;whiteSpace=wrap;html=1;" vertex="1" parent="1">
          <mxGeometry x="420" y="552" width="40" height="25" as="geometry" />
        </mxCell>
        <mxCell id="7rVctip8Hl9_rT7Khhuv-50" value="D" style="rounded=0;whiteSpace=wrap;html=1;" vertex="1" parent="1">
          <mxGeometry x="380" y="592" width="40" height="25" as="geometry" />
        </mxCell>
        <mxCell id="7rVctip8Hl9_rT7Khhuv-51" value="Job" style="rounded=0;whiteSpace=wrap;html=1;" vertex="1" parent="1">
          <mxGeometry x="420" y="592" width="40" height="25" as="geometry" />
        </mxCell>
        <mxCell id="7rVctip8Hl9_rT7Khhuv-52" value="E" style="rounded=0;whiteSpace=wrap;html=1;" vertex="1" parent="1">
          <mxGeometry x="380" y="632" width="40" height="25" as="geometry" />
        </mxCell>
        <mxCell id="7rVctip8Hl9_rT7Khhuv-53" value="Job" style="rounded=0;whiteSpace=wrap;html=1;" vertex="1" parent="1">
          <mxGeometry x="420" y="632" width="40" height="25" as="geometry" />
        </mxCell>
        <mxCell id="7rVctip8Hl9_rT7Khhuv-56" value="R1" style="rounded=0;whiteSpace=wrap;html=1;" vertex="1" parent="1">
          <mxGeometry x="540" y="472" width="40" height="25" as="geometry" />
        </mxCell>
        <mxCell id="7rVctip8Hl9_rT7Khhuv-57" value="A" style="rounded=0;whiteSpace=wrap;html=1;" vertex="1" parent="1">
          <mxGeometry x="580" y="472" width="40" height="25" as="geometry" />
        </mxCell>
        <mxCell id="7rVctip8Hl9_rT7Khhuv-58" value="B" style="rounded=0;whiteSpace=wrap;html=1;" vertex="1" parent="1">
          <mxGeometry x="620" y="472" width="40" height="25" as="geometry" />
        </mxCell>
        <mxCell id="7rVctip8Hl9_rT7Khhuv-59" value="R2" style="rounded=0;whiteSpace=wrap;html=1;" vertex="1" parent="1">
          <mxGeometry x="540" y="512" width="40" height="25" as="geometry" />
        </mxCell>
        <mxCell id="7rVctip8Hl9_rT7Khhuv-60" value="A" style="rounded=0;whiteSpace=wrap;html=1;" vertex="1" parent="1">
          <mxGeometry x="580" y="512" width="40" height="25" as="geometry" />
        </mxCell>
        <mxCell id="7rVctip8Hl9_rT7Khhuv-61" value="C" style="rounded=0;whiteSpace=wrap;html=1;" vertex="1" parent="1">
          <mxGeometry x="620" y="512" width="40" height="25" as="geometry" />
        </mxCell>
        <mxCell id="7rVctip8Hl9_rT7Khhuv-62" value="R3" style="rounded=0;whiteSpace=wrap;html=1;" vertex="1" parent="1">
          <mxGeometry x="540" y="552" width="40" height="25" as="geometry" />
        </mxCell>
        <mxCell id="7rVctip8Hl9_rT7Khhuv-63" value="C" style="rounded=0;whiteSpace=wrap;html=1;" vertex="1" parent="1">
          <mxGeometry x="580" y="552" width="40" height="25" as="geometry" />
        </mxCell>
        <mxCell id="7rVctip8Hl9_rT7Khhuv-64" value="D" style="rounded=0;whiteSpace=wrap;html=1;" vertex="1" parent="1">
          <mxGeometry x="620" y="552" width="40" height="25" as="geometry" />
        </mxCell>
        <mxCell id="7rVctip8Hl9_rT7Khhuv-65" value="R4" style="rounded=0;whiteSpace=wrap;html=1;" vertex="1" parent="1">
          <mxGeometry x="540" y="592" width="40" height="25" as="geometry" />
        </mxCell>
        <mxCell id="7rVctip8Hl9_rT7Khhuv-66" value="D" style="rounded=0;whiteSpace=wrap;html=1;" vertex="1" parent="1">
          <mxGeometry x="580" y="592" width="40" height="25" as="geometry" />
        </mxCell>
        <mxCell id="7rVctip8Hl9_rT7Khhuv-67" value="E" style="rounded=0;whiteSpace=wrap;html=1;" vertex="1" parent="1">
          <mxGeometry x="620" y="592" width="40" height="25" as="geometry" />
        </mxCell>
        <mxCell id="7rVctip8Hl9_rT7Khhuv-68" value="R5" style="rounded=0;whiteSpace=wrap;html=1;" vertex="1" parent="1">
          <mxGeometry x="540" y="632" width="40" height="25" as="geometry" />
        </mxCell>
        <mxCell id="7rVctip8Hl9_rT7Khhuv-69" value="B" style="rounded=0;whiteSpace=wrap;html=1;" vertex="1" parent="1">
          <mxGeometry x="580" y="632" width="40" height="25" as="geometry" />
        </mxCell>
        <mxCell id="7rVctip8Hl9_rT7Khhuv-70" value="E" style="rounded=0;whiteSpace=wrap;html=1;" vertex="1" parent="1">
          <mxGeometry x="620" y="632" width="40" height="25" as="geometry" />
        </mxCell>
        <mxCell id="7rVctip8Hl9_rT7Khhuv-72" value="&lt;font style=&quot;font-size: 14px;&quot;&gt;F&lt;/font&gt;" style="ellipse;whiteSpace=wrap;html=1;aspect=fixed;" vertex="1" parent="1">
          <mxGeometry x="130" y="440" width="50" height="50" as="geometry" />
        </mxCell>
        <mxCell id="7rVctip8Hl9_rT7Khhuv-73" value="F" style="rounded=0;whiteSpace=wrap;html=1;" vertex="1" parent="1">
          <mxGeometry x="380" y="672" width="40" height="25" as="geometry" />
        </mxCell>
        <mxCell id="7rVctip8Hl9_rT7Khhuv-74" value="Job" style="rounded=0;whiteSpace=wrap;html=1;" vertex="1" parent="1">
          <mxGeometry x="420" y="672" width="40" height="25" as="geometry" />
        </mxCell>
        <mxCell id="7rVctip8Hl9_rT7Khhuv-75" value="F" style="rounded=0;whiteSpace=wrap;html=1;" vertex="1" parent="1">
          <mxGeometry x="650" y="295" width="40" height="25" as="geometry" />
        </mxCell>
        <mxCell id="7rVctip8Hl9_rT7Khhuv-76" value="Job" style="rounded=0;whiteSpace=wrap;html=1;" vertex="1" parent="1">
          <mxGeometry x="690" y="295" width="40" height="25" as="geometry" />
        </mxCell>
        <mxCell id="7rVctip8Hl9_rT7Khhuv-77" style="edgeStyle=orthogonalEdgeStyle;rounded=0;orthogonalLoop=1;jettySize=auto;html=1;exitX=0.5;exitY=1;exitDx=0;exitDy=0;" edge="1" parent="1" source="7rVctip8Hl9_rT7Khhuv-78" target="7rVctip8Hl9_rT7Khhuv-79">
          <mxGeometry relative="1" as="geometry" />
        </mxCell>
        <mxCell id="7rVctip8Hl9_rT7Khhuv-78" value="Next" style="rounded=0;whiteSpace=wrap;html=1;" vertex="1" parent="1">
          <mxGeometry x="730" y="295" width="40" height="25" as="geometry" />
        </mxCell>
        <mxCell id="7rVctip8Hl9_rT7Khhuv-79" value="Null" style="rounded=0;whiteSpace=wrap;html=1;" vertex="1" parent="1">
          <mxGeometry x="730" y="350" width="40" height="25" as="geometry" />
        </mxCell>
        <mxCell id="7rVctip8Hl9_rT7Khhuv-81" value="R6" style="rounded=0;whiteSpace=wrap;html=1;" vertex="1" parent="1">
          <mxGeometry x="540" y="672" width="40" height="25" as="geometry" />
        </mxCell>
        <mxCell id="7rVctip8Hl9_rT7Khhuv-82" value="E" style="rounded=0;whiteSpace=wrap;html=1;" vertex="1" parent="1">
          <mxGeometry x="580" y="672" width="40" height="25" as="geometry" />
        </mxCell>
        <mxCell id="7rVctip8Hl9_rT7Khhuv-83" value="F" style="rounded=0;whiteSpace=wrap;html=1;" vertex="1" parent="1">
          <mxGeometry x="620" y="672" width="40" height="25" as="geometry" />
        </mxCell>
        <mxCell id="7rVctip8Hl9_rT7Khhuv-87" value="方式一（一张表）" style="text;html=1;strokeColor=none;fillColor=none;align=center;verticalAlign=middle;whiteSpace=wrap;rounded=0;" vertex="1" parent="1">
          <mxGeometry x="530" y="40" width="100" height="30" as="geometry" />
        </mxCell>
        <mxCell id="7rVctip8Hl9_rT7Khhuv-89" value="方式二" style="text;html=1;strokeColor=none;fillColor=none;align=center;verticalAlign=middle;whiteSpace=wrap;rounded=0;" vertex="1" parent="1">
          <mxGeometry x="480" y="420" width="60" height="30" as="geometry" />
        </mxCell>
        <mxCell id="7rVctip8Hl9_rT7Khhuv-90" value="任务表" style="text;html=1;strokeColor=none;fillColor=none;align=center;verticalAlign=middle;whiteSpace=wrap;rounded=0;" vertex="1" parent="1">
          <mxGeometry x="390" y="440" width="60" height="30" as="geometry" />
        </mxCell>
        <mxCell id="7rVctip8Hl9_rT7Khhuv-91" value="关系表" style="text;html=1;strokeColor=none;fillColor=none;align=center;verticalAlign=middle;whiteSpace=wrap;rounded=0;" vertex="1" parent="1">
          <mxGeometry x="570" y="440" width="60" height="30" as="geometry" />
        </mxCell>
      </root>
    </mxGraphModel>
  </diagram>
</mxfile>
